<?xml version="1.0" encoding="utf-8"?>
<!-- Generator: Adobe Illustrator 26.0.1, SVG Export Plug-In . SVG Version: 6.00 Build 0)  -->
<svg version="1.1" id="Layer_1" xmlns="http://www.w3.org/2000/svg" xmlns:xlink="http://www.w3.org/1999/xlink" x="0px"
    y="0px" viewBox="0 0 170 170" style="enable-background:new 0 0 170 170;" xml:space="preserve">
    <style type="text/css">
        .st0 {
            fill: #352A03;
        }

        .st1 {
            fill: #F1E133;
        }

        .st2 {
            fill: #EBC21D;
        }

        .st3 {
            fill: #D2AC14;
        }
    </style>
    <rect x="20" y="135" width="10" height="10" />
    <polygon points="70,105 70,115 20,115 20,135 10,135 10,105 " />
    <rect x="30" y="145" width="20" height="10" />
    <rect x="110" y="145" width="20" height="10" />
    <rect x="50" y="155" width="60" height="10" />
    <rect x="130" y="135" width="10" height="10" />
    <rect x="140" y="115" width="10" height="20" />
    <rect x="70" y="95" width="20" height="10" />
    <rect x="90" y="85" width="10" height="10" />
    <rect x="100" y="55" width="10" height="30" />
    <rect x="150" y="45" width="10" height="70" />
    <rect x="140" y="35" width="10" height="10" />
    <rect x="110" y="14" class="st0" width="11" height="12" />
    <polygon class="st1" points="130,35 130,95 120,95 120,105 110,105 110,115 90,115 90,125 20,125 20,115 70,115 70,105 90,105 
	90,95 100,95 100,85 110,85 110,55 120,55 120,35 " />
    <polygon class="st2" points="140,35 140,105 130,105 130,115 120,115 120,125 110,125 110,135 100,135 100,145 30,145 30,135 
	20,135 20,125 90,125 90,115 110,115 110,105 120,105 120,95 130,95 130,35 " />
    <polygon
        points="140,25 140,35 120,35 120,55 110,55 110,25 120,25 120,15 110,15 110,25 100,25 100,5 130,5 130,25 " />
    <polygon class="st3" points="150,45 150,115 140,115 140,135 130,135 130,145 110,145 110,155 50,155 50,145 100,145 100,135 
	110,135 110,125 120,125 120,115 130,115 130,105 140,105 140,45 " />
    <g>
    </g>
    <g>
    </g>
    <g>
    </g>
    <g>
    </g>
    <g>
    </g>
    <g>
    </g>
</svg>